<?xml version="1.0" encoding="utf-8"?>
<!-- Generator: Adobe Illustrator 24.3.0, SVG Export Plug-In . SVG Version: 6.00 Build 0)  -->
<svg version="1.0" id="katman_1" xmlns="http://www.w3.org/2000/svg" xmlns:xlink="http://www.w3.org/1999/xlink" x="0px" y="0px"
	 viewBox="0 0 841.89 595.28" style="enable-background:new 0 0 841.89 595.28;" xml:space="preserve">
<style type="text/css">
	.st0{opacity:0.2;}
	.st1{fill-rule:evenodd;clip-rule:evenodd;fill:#010202;}
</style>
<g class="st0">
	<path class="st1" d="M310.15,260.47c-12.13,11.67-35.44,19.59-62.33,19.59c-19.99,0-38.06-4.45-51.02-11.53
		c-14.89-8.2-35.44-19.59-62.33-19.59c-20,0-38.06,4.45-51.02,11.53v-5.56c12.96-7.09,31.03-11.53,51.02-11.53
		c26.89,0,47.44,11.39,62.33,19.59c12.96,7.09,31.03,11.53,51.02,11.53c26.89,0,50.19-7.92,62.33-19.59V260.47L310.15,260.47z"/>
	<path class="st1" d="M310.15,284.08c-12.13,11.67-35.44,19.59-62.33,19.59c-19.99,0-38.06-4.45-51.02-11.53
		c-14.89-8.2-35.44-19.59-62.33-19.59c-20,0-38.06,4.45-51.02,11.53v-5.56c12.96-7.09,31.03-11.53,51.02-11.53
		c26.89,0,47.44,11.39,62.33,19.59c12.96,7.09,31.03,11.53,51.02,11.53c26.89,0,50.19-7.92,62.33-19.59V284.08L310.15,284.08z"/>
	<path class="st1" d="M310.15,307.7c-12.13,11.67-35.44,19.59-62.33,19.59c-19.99,0-38.06-4.45-51.02-11.53
		c-14.89-8.2-35.44-19.59-62.33-19.59c-20,0-38.06,4.45-51.02,11.53v-5.56c12.96-7.09,31.03-11.53,51.02-11.53
		c26.89,0,47.44,11.39,62.33,19.59c12.96,7.09,31.03,11.53,51.02,11.53c26.89,0,50.19-7.92,62.33-19.59V307.7L310.15,307.7z"/>
	<path class="st1" d="M310.15,331.32c-12.13,11.67-35.44,19.59-62.33,19.59c-19.99,0-38.06-4.45-51.02-11.53
		c-14.89-8.2-35.44-19.59-62.33-19.59c-20,0-38.06,4.45-51.02,11.53v-5.56c12.96-7.09,31.03-11.53,51.02-11.53
		c26.89,0,47.44,11.39,62.33,19.59c12.96,7.09,31.03,11.53,51.02,11.53c26.89,0,50.19-7.92,62.33-19.59V331.32L310.15,331.32z"/>
</g>
<path class="st1" d="M177.63,256.85h11.72v70.72h-11.72v11.81h38.06v-11.81h-12.27v-24.31h10.48c13.38,0,22.2-1.53,28.68-8.06
	c4-4.03,7.86-11.39,7.86-20.98c0-11.95-5.38-29.18-31.3-29.18h-41.51V256.85z M236.1,274.08c0,9.73-3.72,17.78-20.96,17.78h-11.72
	v-35.01h16.13C229.89,256.85,236.1,262.97,236.1,274.08z"/>
<path class="st1" d="M323.52,306.59c0-19.87-14.62-34.73-34.2-34.73c-19.72,0-34.34,14.87-34.34,34.73
	c0,19.87,14.62,34.73,34.2,34.73S323.52,326.46,323.52,306.59z M309.73,306.59c0,12.78-8.83,22.23-20.55,22.23
	c-11.58,0-20.41-9.45-20.41-22.23c0-12.64,8.83-22.23,20.41-22.23C300.91,284.36,309.73,293.95,309.73,306.59z"/>
<path class="st1" d="M334.42,316.87h11.45v2.22c1.1,6.53,7.03,10.56,15.58,10.56c8.14,0,13.38-3.2,13.38-8.2
	c0-12.23-22.89-4.45-35.3-16.95c-3.03-3.06-5.1-7.64-5.1-12.5c0-11.25,9.65-19.31,22.89-19.31c5.93,0,11.58,1.39,15.86,3.75v-2.64
	h11.31v21.67h-11.31v-4.03c-3.72-5.56-8.55-8.06-15.17-8.06c-6.89,0-11.45,3.2-11.45,8.06c0,10.98,25.1,4.58,35.85,15.42
	c3.86,3.89,5.52,9.03,5.52,13.62c0,11.95-10.07,20.01-24.96,20.01c-7.03,0-12.41-1.53-17.1-4.72v3.61h-11.45V316.87L334.42,316.87z"
	/>
<path class="st1" d="M396.06,273.8h8.41v-10.14l12.96-11.81v21.95h12v11.39h-12v37.93c0,6.39,5.65,6.11,12,3.89v11.67
	c-3.03,0.97-6.48,1.81-9.51,1.81c-9.1,0-15.44-4.17-15.44-15.56V285.2h-8.41V273.8L396.06,273.8z"/>
<path class="st1" d="M449.29,285.2h-10.89V273.8h23.85v8.2c7.58-6.11,14.89-9.31,22.06-9.31c7.31,0,12.96,3.61,15.72,10.28
	c9.38-7.36,15.99-10.28,23.44-10.28c10.76,0,17.38,6.67,17.38,18.06v37.23h11.17v11.39h-24.13v-45.71c0-6.39-2.89-9.59-7.86-9.59
	c-5.24,0-11.99,3.2-18.48,8.61v35.29h11.17v11.39h-24.13v-45.43c0-6.95-3.86-9.31-8-9.31c-4.69,0-10.48,2.5-18.34,8.06v35.29h11.17
	v11.39h-35.99v-11.39h11.86V285.2L449.29,285.2z"/>
<path class="st1" d="M601.94,339.38h22.61v-11.39h-11.17V292c0-10.56-6.48-20.15-25.51-20.15c-13.24,0-22.62,5.14-28.13,15.28
	l12.27,3.33c2.9-5.14,7.72-7.78,13.93-7.78c7.72,0,14.48,3.33,14.48,12.64v8.61c-5.24-3.47-11.99-5.56-17.79-5.56
	c-13.38,0-23.72,9.31-23.72,21.26c0,11.67,9.65,20.84,22.06,20.84c7.17,0,12.82-2.5,20.96-9.17V339.38z M583.59,308.4
	c5.52,0,11.31,2.22,16.82,6.53v7.78c-5.24,4.86-11.72,7.78-17.51,7.78c-6.89,0-11.72-4.45-11.72-10.84
	C571.19,313.12,576.43,308.4,583.59,308.4z"/>
<path class="st1" d="M642.2,285.2h-13.1V273.8h23.3v14.73h0.28c4.14-10.98,12.41-15.84,20.55-15.84h8.41v13.06h-6.9
	c-15.03,0-19.58,8.47-19.58,23.48v18.76h14.07v11.39h-39.85v-11.39h12.82V285.2L642.2,285.2z"/>
<path class="st1" d="M695.84,256.44h-11.72v-11.39h24.68v58.91l24.41-19.31v-0.28h-10.89V273.8h36.13v10.56h-10.07l-24.41,20.42
	l23.03,23.2h11.17v11.39h-16.55l-32.82-33.07v21.67h9.65v11.39h-34.47v-11.39h11.86V256.44L695.84,256.44z"/>
</svg>
