<?xml version="1.0" encoding="UTF-8" standalone="no"?>
<!-- Created with Inkscape (http://www.inkscape.org/) -->

<svg
   version="1.1"
   id="svg2"
   width="1333.3333"
   height="242.70267"
   viewBox="0 0 1333.3333 242.70267"
   sodipodi:docname="Voiceflow-LogoLockup-Black-pms-c.ai"
   xmlns:inkscape="http://www.inkscape.org/namespaces/inkscape"
   xmlns:sodipodi="http://sodipodi.sourceforge.net/DTD/sodipodi-0.dtd"
   xmlns="http://www.w3.org/2000/svg"
   xmlns:svg="http://www.w3.org/2000/svg">
  <defs
     id="defs6">
    <clipPath
       clipPathUnits="userSpaceOnUse"
       id="clipPath16">
      <path
         d="M 0,182.027 H 1000 V 0 H 0 Z"
         id="path14" />
    </clipPath>
  </defs>
  <sodipodi:namedview
     id="namedview4"
     pagecolor="#ffffff"
     bordercolor="#000000"
     borderopacity="0.25"
     inkscape:showpageshadow="2"
     inkscape:pageopacity="0.0"
     inkscape:pagecheckerboard="0"
     inkscape:deskcolor="#d1d1d1" />
  <g
     id="g8"
     inkscape:groupmode="layer"
     inkscape:label="Voiceflow-LogoLockup-Black-pms-c"
     transform="matrix(1.3333333,0,0,-1.3333333,0,242.70267)">
    <g
       id="g10">
      <g
         id="g12"
         clip-path="url(#clipPath16)">
        <g
           id="g18"
           transform="translate(502.7487,93.7929)">
          <path
             d="m 0,0 c -2.143,-4.175 -3.186,-8.734 -3.186,-13.65 0,-4.916 1.071,-9.476 3.186,-13.65 2.114,-4.175 5.081,-7.443 8.898,-9.86 3.79,-2.417 8.129,-3.626 12.936,-3.626 4.807,0 8.899,0.989 12.332,2.994 3.405,2.005 5.932,4.697 7.58,8.102 h 21.149 c -1.868,-5.273 -4.587,-10.135 -8.102,-14.529 -3.544,-4.394 -8.131,-7.937 -13.761,-10.656 -5.658,-2.719 -12.222,-4.065 -19.747,-4.065 -8.213,0 -15.737,2.005 -22.549,6.07 -6.839,4.065 -12.167,9.53 -16.04,16.479 -3.899,6.921 -5.823,14.501 -5.823,22.741 0,8.239 1.951,15.792 5.823,22.741 3.873,6.921 9.229,12.414 16.04,16.479 6.812,4.037 14.309,6.07 22.549,6.07 7.525,0 14.089,-1.346 19.747,-4.065 5.657,-2.692 10.245,-6.262 13.761,-10.657 3.515,-4.394 6.206,-9.255 8.102,-14.529 H 41.746 c -1.648,3.406 -4.175,6.098 -7.58,8.103 -3.405,2.004 -7.525,2.993 -12.332,2.993 -4.807,0 -9.119,-1.236 -12.936,-3.625 C 5.081,7.443 2.114,4.175 0,0 m 86.076,-1.622 c 1.511,4.752 4.285,8.707 8.295,11.81 3.981,3.104 9.392,4.669 16.204,4.669 4.258,0 8.075,-0.824 11.563,-2.471 3.46,-1.648 6.29,-3.9 8.542,-6.784 2.224,-2.857 3.762,-6.125 4.558,-9.778 H 85.335 c 0.219,0.852 0.466,1.703 0.741,2.554 m 65.367,-32.793 c 0.576,1.428 1.126,2.857 1.593,4.312 h -19.363 c -0.605,-1.154 -1.319,-2.225 -2.115,-3.268 -2.252,-2.884 -5.081,-5.136 -8.541,-6.784 -3.462,-1.648 -6.949,-2.087 -11.179,-2.087 -4.806,0 -9.338,1.126 -13.568,3.351 -4.256,2.252 -7.635,5.245 -10.244,9.09 -2.225,3.269 -3.542,6.894 -3.928,10.821 h 70.723 c 0.467,9.393 -0.962,17.963 -4.23,25.653 h -0.027 c -3.296,7.69 -8.35,13.76 -15.16,18.237 -6.812,4.476 -14.969,6.701 -24.472,6.701 -8.57,0 -16.369,-2.032 -23.345,-6.07 -6.976,-4.065 -12.469,-9.53 -16.479,-16.396 -4.01,-6.894 -5.987,-14.447 -5.987,-22.659 0,-1.868 0.109,-3.68 0.328,-5.466 0.66,-6.262 2.527,-12.084 5.577,-17.522 3.926,-7.004 9.448,-12.551 16.561,-16.672 7.112,-4.092 15.189,-6.179 24.223,-6.179 9.503,0 17.662,2.225 24.472,6.701 6.812,4.477 11.866,10.547 15.161,18.237 m -236.671,7.005 c -2.417,-4.23 -5.63,-7.581 -9.695,-10.052 h 0.055 c -4.065,-2.472 -8.541,-3.681 -13.486,-3.681 -4.943,0 -9.42,1.209 -13.485,3.681 -4.065,2.471 -7.279,5.822 -9.695,10.052 -2.417,4.23 -3.625,8.514 -3.625,13.568 0,5.053 1.181,9.64 3.515,13.814 2.335,4.175 5.576,7.444 9.695,9.86 4.12,2.417 8.625,3.626 13.568,3.626 4.944,0 9.475,-1.236 13.568,-3.626 4.119,-2.416 7.36,-5.685 9.695,-9.86 2.334,-4.174 3.515,-8.981 3.515,-13.814 0,-4.834 -1.208,-9.338 -3.625,-13.568 m 0.522,52.925 c -7.114,4.092 -14.996,6.152 -23.702,6.152 -8.707,0 -16.589,-2.06 -23.703,-6.152 -7.113,-4.147 -12.661,-9.695 -16.726,-16.671 -4.038,-7.004 -6.069,-14.529 -6.069,-22.659 0,-8.129 1.976,-15.682 5.904,-22.658 3.928,-7.004 9.449,-12.58 16.561,-16.672 h -0.027 c 7.114,-4.092 15.161,-6.152 24.06,-6.152 8.898,0 16.918,2.087 24.032,6.262 7.113,4.174 12.633,9.723 16.561,16.671 3.928,6.922 5.905,14.42 5.905,22.549 0,8.13 -2.005,15.683 -6.069,22.659 -4.037,7.003 -9.614,12.579 -16.727,16.671 m 32.385,4.531 h 19.363 v -87.751 h -19.363 z m 265.226,39.111 h 5.85 V 52.595 h -4.531 c -4.339,0 -7.799,-1.208 -10.354,-3.625 -2.554,-2.417 -4.285,-6.125 -5.137,-11.178 l -1.355,-7.746 h 21.377 V 13.319 h -24.307 l -12.44,-71.023 h -0.035 l -1.386,-7.91 c -1.676,-9.393 -5.438,-16.451 -11.288,-21.121 h 0.027 c -5.877,-4.697 -13.046,-7.058 -21.505,-7.058 -6.344,0 -10.738,0.055 -13.21,0.165 l 2.911,16.56 h 8.981 c 4.339,0 7.8,1.21 10.354,3.626 2.555,2.417 4.285,6.125 5.136,11.179 l 13.238,75.582 h -14.344 v 16.727 h 17.274 l 1.98,11.096 c 1.647,9.393 5.409,16.452 11.288,21.121 L 191.4,62.29 c 5.85,4.697 13.046,6.867 21.505,6.867 m -350.175,0 -52.512,-126.861 h -21.148 l -52.514,126.861 h 22.027 l 41.5,-102.804 41.499,102.804 z M 497.251,30.046 464.844,-57.705 H 445.481 L 424.249,4.388 403.018,-57.705 h -19.362 l -32.408,87.751 h 20.159 l 22.384,-63.802 21.505,63.802 h 18.869 l 21.34,-63.802 22.549,63.802 z M 231.638,69.157 h 19.363 V -57.704 h -19.363 z m 99.318,-96.567 c -2.417,-4.23 -5.629,-7.581 -9.695,-10.052 h 0.056 c -4.066,-2.472 -8.543,-3.681 -13.486,-3.681 -4.944,0 -9.421,1.209 -13.485,3.681 -4.065,2.471 -7.279,5.822 -9.696,10.052 -2.416,4.23 -3.626,8.514 -3.626,13.568 0,5.053 1.183,9.64 3.516,13.814 2.334,4.175 5.603,7.444 9.695,9.86 4.121,2.417 8.624,3.626 13.569,3.626 4.943,0 9.476,-1.236 13.567,-3.626 4.12,-2.416 7.361,-5.685 9.695,-9.86 2.335,-4.174 3.516,-8.981 3.516,-13.814 0,-4.834 -1.208,-9.338 -3.626,-13.568 m 0.522,52.925 c -7.113,4.092 -14.996,6.152 -23.701,6.152 -8.707,0 -16.59,-2.06 -23.703,-6.152 -7.087,-4.147 -12.662,-9.695 -16.727,-16.671 -4.037,-7.004 -6.07,-14.529 -6.07,-22.659 0,-8.129 1.978,-15.682 5.905,-22.658 3.928,-7.004 9.448,-12.58 16.562,-16.672 h -0.027 c 7.113,-4.092 15.133,-6.152 24.06,-6.152 8.925,0 16.945,2.087 24.058,6.262 7.114,4.174 12.634,9.723 16.562,16.671 3.927,6.922 5.905,14.42 5.905,22.549 0,8.13 -2.033,15.683 -6.098,22.659 -4.037,7.003 -9.612,12.579 -16.726,16.671 M -52.321,69.157 h 19.363 V 49.794 h -19.363 z m -268.507,-90.656 c 1.452,8.61 2.161,17.861 2.161,27.079 0,9.217 -0.709,18.469 -2.161,27.079 13.945,-2.06 24.682,-13.405 24.682,-27.079 0,-13.675 -10.737,-25.02 -24.682,-27.079 m -13.269,1.452 c -9.015,2.228 -45.919,23.939 -47.607,24.884 v 1.486 c 1.688,0.945 38.592,22.655 47.607,24.884 1.249,-7.361 2.06,-15.903 2.06,-25.627 0,-9.724 -0.811,-18.267 -2.06,-25.627 m -12.594,-30.219 c -0.945,-0.642 -2.093,-0.507 -3.14,0.034 -5.571,3.005 -25.863,34.709 -25.863,35.79 l 0.979,1.046 c 6.078,-4.22 21.508,-14.721 37.546,-19.65 -2.938,-9.353 -6.551,-15.228 -9.522,-17.22 m -3.14,111.658 c 1.047,0.54 2.195,0.675 3.14,0.034 2.971,-1.992 6.584,-7.867 9.522,-17.22 -16.038,-4.93 -31.468,-15.43 -37.546,-19.651 l -0.979,1.047 c 0,1.08 20.292,32.785 25.863,35.79 M -403.786,4.837 c -1.688,-0.945 -38.592,-22.656 -47.607,-24.884 -1.25,7.36 -2.06,15.903 -2.06,25.627 0,9.724 0.81,18.266 2.06,25.627 9.015,-2.229 45.919,-23.939 47.607,-24.884 z m -31.873,-55.069 c -1.047,-0.541 -2.195,-0.676 -3.14,-0.034 -2.972,1.992 -6.584,7.867 -9.522,17.22 16.038,4.929 31.468,15.43 37.546,19.65 l 0.979,-1.046 c 0,-1.081 -20.292,-32.785 -25.863,-35.79 m -3.14,111.658 c 0.945,0.641 2.093,0.506 3.14,-0.034 5.571,-3.005 25.863,-34.71 25.863,-35.79 l -0.979,-1.047 c -6.078,4.221 -21.508,14.721 -37.546,19.651 2.938,9.353 6.55,15.228 9.522,17.22 m -25.864,-82.925 c -13.944,2.059 -24.681,13.404 -24.681,27.079 0,13.674 10.737,25.019 24.681,27.079 -1.452,-8.61 -2.161,-17.862 -2.161,-27.079 0,-9.218 0.709,-18.469 2.161,-27.079 m 140.797,67.832 c -4.964,17.085 -13.303,29.274 -24.918,29.274 -15.498,0 -36.736,-43.522 -36.736,-43.522 l -1.384,0.304 0.372,4.895 c 0.062,0.938 0.124,2.861 0.187,5.284 0.303,11.716 0.173,23.438 -0.355,35.145 l -0.459,10.199 c -0.009,0.18 -0.157,0.322 -0.338,0.322 h -10.497 c -0.18,0 -0.329,-0.142 -0.337,-0.322 l -0.459,-10.199 c -0.528,-11.707 -0.658,-23.429 -0.355,-35.145 0.062,-2.423 0.125,-4.346 0.187,-5.284 l 0.372,-4.895 -1.385,-0.304 c 0,0 -21.237,43.522 -36.735,43.522 -11.615,0 -19.955,-12.189 -24.918,-29.274 -22.791,-0.743 -41.125,-18.705 -41.125,-40.753 0,-22.048 18.334,-40.011 41.125,-40.754 4.963,-17.084 13.303,-29.273 24.918,-29.273 15.498,0 36.735,43.522 36.735,43.522 l 1.385,-0.304 -0.372,-4.896 c -0.062,-0.938 -0.125,-2.86 -0.187,-5.284 -0.303,-11.715 -0.173,-23.438 0.355,-35.145 l 0.459,-10.198 c 0.008,-0.181 0.157,-0.323 0.337,-0.323 h 10.497 c 0.181,0 0.329,0.142 0.338,0.323 l 0.459,10.198 c 0.528,11.707 0.658,23.43 0.355,35.145 -0.063,2.424 -0.125,4.346 -0.187,5.284 l -0.372,4.896 1.384,0.304 c 0,0 21.238,-43.522 36.736,-43.522 11.615,0 19.954,12.189 24.918,29.273 22.791,0.743 41.124,18.706 41.124,40.754 0,22.048 -18.333,40.01 -41.124,40.753"
             style="fill:#1e2427;fill-opacity:1;fill-rule:nonzero;stroke:none"
             id="path20" />
        </g>
      </g>
    </g>
  </g>
</svg>
